<svg width="30" height="30" viewBox="0 0 30 30" fill="none" xmlns="http://www.w3.org/2000/svg">
<path d="M0 2V28C0 29.1 0.9 30 2 30H28C29.1 30 30 29.1 30 28V2C30 0.9 29.1 0 28 0H2C0.9 0 0 0.9 0 2ZM8.55 25H5V11.2H8.55V25ZM6.8 8.45C5.8 8.45 5 7.7 5 6.75C5 5.8 5.8 5.05 6.8 5.05C7.8 5.05 8.6 5.8 8.6 6.75C8.55 7.7 7.75 8.45 6.8 8.45ZM25 25H21.45V18.1C21.45 16.65 21.4 15.7 21.25 15.25C21.1 14.8 20.85 14.5 20.55 14.25C20.2 14 19.8 13.9 19.35 13.9C18.75 13.9 18.2 14.05 17.75 14.4C17.25 14.75 16.95 15.2 16.75 15.75C16.55 16.3 16.5 17.35 16.5 18.85V25H12.2V11.2H15.75V13.25C16.95 11.7 18.5 10.9 20.35 10.9C21.15 10.9 21.9 11.05 22.6 11.35C23.25 11.65 23.8 12 24.15 12.45C24.5 12.9 24.75 13.4 24.85 14C25 14.55 25.05 15.4 25.05 16.45V25H25Z" fill="#0077B5"/>
</svg>
