<svg width="164" height="81" viewBox="0 0 164 81" fill="none" xmlns="http://www.w3.org/2000/svg">
<g filter="url(#filter0_d_312_104)">
<path d="M14.016 36.864C11.744 36.864 9.68 36.384 7.824 35.424C5.968 34.464 4.496 33.04 3.408 31.152C2.352 29.264 1.824 26.912 1.824 24.096V22.896H6.528V24.96C6.528 27.36 7.232 29.232 8.64 30.576C10.048 31.888 11.84 32.544 14.016 32.544C16.192 32.544 17.984 31.888 19.392 30.576C20.8 29.232 21.504 27.36 21.504 24.96V4.224H26.208V24.096C26.208 26.912 25.664 29.264 24.576 31.152C23.52 33.04 22.064 34.464 20.208 35.424C18.384 36.384 16.32 36.864 14.016 36.864ZM6.432 5.184V0.959999H26.208V5.184H6.432Z" fill="#F7E018"/>
<path d="M38.3111 36.408C37.2391 36.408 36.3111 36.224 35.5271 35.856C34.7431 35.472 34.1031 34.968 33.6071 34.344C33.1111 33.704 32.7351 32.992 32.4791 32.208C32.2391 31.408 32.1191 30.6 32.1191 29.784V29.544C32.1191 28.712 32.2391 27.912 32.4791 27.144C32.7351 26.376 33.1111 25.68 33.6071 25.056C34.1191 24.416 34.7511 23.92 35.5031 23.568C36.2711 23.2 37.1591 23.016 38.1671 23.016C39.4471 23.016 40.5191 23.304 41.3831 23.88C42.2631 24.44 42.9271 25.176 43.3751 26.088C43.8231 27 44.0471 27.96 44.0471 28.968V29.832H32.7191V28.776H43.2071L42.8231 29.256C42.8231 28.28 42.6391 27.408 42.2711 26.64C41.9191 25.872 41.3911 25.272 40.6871 24.84C39.9991 24.392 39.1591 24.168 38.1671 24.168C37.0951 24.168 36.1991 24.416 35.4791 24.912C34.7591 25.408 34.2151 26.072 33.8471 26.904C33.4951 27.736 33.3191 28.656 33.3191 29.664C33.3191 30.672 33.4951 31.6 33.8471 32.448C34.2151 33.28 34.7671 33.96 35.5031 34.488C36.2391 35 37.1751 35.256 38.3111 35.256C39.5271 35.256 40.5031 34.976 41.2391 34.416C41.9911 33.856 42.4471 33.184 42.6071 32.4H43.8551C43.6791 33.184 43.3431 33.88 42.8471 34.488C42.3511 35.096 41.7191 35.568 40.9511 35.904C40.1991 36.24 39.3191 36.408 38.3111 36.408ZM48.0664 36V21.96C48.0664 20.712 48.3784 19.792 49.0024 19.2C49.6424 18.608 50.6024 18.312 51.8824 18.312H53.3464V19.416H51.5944C50.8584 19.416 50.2904 19.616 49.8904 20.016C49.5064 20.4 49.3144 20.944 49.3144 21.648V36H48.0664ZM56.0824 36V22.104C56.0824 20.856 56.3944 19.936 57.0184 19.344C57.6584 18.752 58.6184 18.456 59.8984 18.456H61.5544V19.56H59.6104C58.8744 19.56 58.3064 19.76 57.9064 20.16C57.5224 20.544 57.3304 21.088 57.3304 21.792V36H56.0824ZM46.1224 24.504V23.496H61.8184V24.504H46.1224ZM69.6705 36.408C68.5985 36.408 67.6705 36.224 66.8865 35.856C66.1025 35.472 65.4625 34.968 64.9665 34.344C64.4705 33.704 64.0945 32.992 63.8385 32.208C63.5985 31.408 63.4785 30.6 63.4785 29.784V29.544C63.4785 28.712 63.5985 27.912 63.8385 27.144C64.0945 26.376 64.4705 25.68 64.9665 25.056C65.4785 24.416 66.1105 23.92 66.8625 23.568C67.6305 23.2 68.5185 23.016 69.5265 23.016C70.8065 23.016 71.8785 23.304 72.7425 23.88C73.6225 24.44 74.2865 25.176 74.7345 26.088C75.1825 27 75.4065 27.96 75.4065 28.968V29.832H64.0785V28.776H74.5665L74.1825 29.256C74.1825 28.28 73.9985 27.408 73.6305 26.64C73.2785 25.872 72.7505 25.272 72.0465 24.84C71.3585 24.392 70.5185 24.168 69.5265 24.168C68.4545 24.168 67.5585 24.416 66.8385 24.912C66.1185 25.408 65.5745 26.072 65.2065 26.904C64.8545 27.736 64.6785 28.656 64.6785 29.664C64.6785 30.672 64.8545 31.6 65.2065 32.448C65.5745 33.28 66.1265 33.96 66.8625 34.488C67.5985 35 68.5345 35.256 69.6705 35.256C70.8865 35.256 71.8625 34.976 72.5985 34.416C73.3505 33.856 73.8065 33.184 73.9665 32.4H75.2145C75.0385 33.184 74.7025 33.88 74.2065 34.488C73.7105 35.096 73.0785 35.568 72.3105 35.904C71.5585 36.24 70.6785 36.408 69.6705 36.408ZM79.0658 36V23.4H80.0738V28.728H79.8818C79.8818 26.904 80.2898 25.544 81.1058 24.648C81.9218 23.752 83.2418 23.304 85.0658 23.304H85.4978V24.456H84.8258C83.3378 24.456 82.2178 24.84 81.4658 25.608C80.7138 26.36 80.3378 27.472 80.3378 28.944V36H79.0658ZM92.3728 36.36C90.8048 36.36 89.5968 36 88.7488 35.28C87.9168 34.56 87.4928 33.64 87.4768 32.52H88.7248C88.7248 33.24 89.0048 33.872 89.5648 34.416C90.1408 34.944 91.0768 35.208 92.3728 35.208C93.6368 35.208 94.5648 34.944 95.1568 34.416C95.7488 33.872 96.0448 33.232 96.0448 32.496C96.0448 31.776 95.7728 31.224 95.2288 30.84C94.7008 30.456 93.9808 30.216 93.0688 30.12L91.5808 29.952C90.4768 29.824 89.5968 29.48 88.9408 28.92C88.3008 28.36 87.9808 27.6 87.9808 26.64C87.9808 25.952 88.1568 25.336 88.5088 24.792C88.8608 24.248 89.3648 23.816 90.0208 23.496C90.6928 23.176 91.4768 23.016 92.3728 23.016C93.6848 23.016 94.7408 23.336 95.5408 23.976C96.3568 24.616 96.7728 25.488 96.7888 26.592H95.5408C95.5568 25.904 95.2848 25.328 94.7248 24.864C94.1808 24.4 93.3968 24.168 92.3728 24.168C91.3008 24.168 90.5008 24.416 89.9728 24.912C89.4608 25.408 89.2048 25.992 89.2048 26.664C89.2048 27.224 89.4048 27.704 89.8048 28.104C90.2208 28.504 90.8448 28.752 91.6768 28.848L93.1648 29.016C94.3488 29.128 95.3248 29.472 96.0928 30.048C96.8768 30.624 97.2688 31.448 97.2688 32.52C97.2688 33.24 97.0688 33.888 96.6688 34.464C96.2848 35.04 95.7328 35.504 95.0128 35.856C94.2928 36.192 93.4128 36.36 92.3728 36.36ZM106.639 36.408C105.583 36.408 104.647 36.216 103.831 35.832C103.015 35.448 102.327 34.944 101.767 34.32C101.223 33.696 100.807 33 100.519 32.232C100.247 31.448 100.111 30.648 100.111 29.832V29.592C100.111 28.76 100.255 27.952 100.543 27.168C100.831 26.384 101.255 25.68 101.815 25.056C102.375 24.432 103.055 23.936 103.855 23.568C104.671 23.2 105.599 23.016 106.639 23.016C107.663 23.016 108.575 23.2 109.375 23.568C110.191 23.936 110.879 24.432 111.439 25.056C111.999 25.68 112.423 26.384 112.711 27.168C113.015 27.952 113.167 28.76 113.167 29.592V29.832C113.167 30.648 113.023 31.448 112.735 32.232C112.447 33 112.023 33.696 111.463 34.32C110.919 34.944 110.239 35.448 109.423 35.832C108.623 36.216 107.695 36.408 106.639 36.408ZM106.639 35.232C107.759 35.232 108.703 34.976 109.471 34.464C110.255 33.952 110.847 33.28 111.247 32.448C111.663 31.6 111.871 30.688 111.871 29.712C111.871 28.704 111.663 27.784 111.247 26.952C110.831 26.104 110.231 25.432 109.447 24.936C108.679 24.424 107.743 24.168 106.639 24.168C105.551 24.168 104.607 24.424 103.807 24.936C103.023 25.432 102.423 26.104 102.007 26.952C101.591 27.784 101.383 28.704 101.383 29.712C101.383 30.688 101.583 31.6 101.983 32.448C102.399 33.28 102.999 33.952 103.783 34.464C104.567 34.976 105.519 35.232 106.639 35.232ZM117.035 36V23.4H118.043V28.56H117.755C117.755 27.456 117.931 26.496 118.283 25.68C118.651 24.848 119.187 24.208 119.891 23.76C120.611 23.296 121.499 23.064 122.555 23.064H122.627C124.211 23.064 125.403 23.56 126.203 24.552C127.003 25.528 127.403 26.864 127.403 28.56V36H126.107V28.272C126.107 27.072 125.779 26.104 125.123 25.368C124.483 24.616 123.555 24.24 122.339 24.24C121.107 24.24 120.123 24.624 119.387 25.392C118.667 26.144 118.307 27.144 118.307 28.392V36H117.035Z" fill="#313131"/>
</g>
<g filter="url(#filter1_d_312_104)">
<path d="M40.1749 78.864C37.2629 78.864 34.7829 78.384 32.7349 77.424C30.6869 76.464 29.1189 75.136 28.0309 73.44C26.9429 71.744 26.3989 69.824 26.3989 67.68H31.1029C31.1029 68.736 31.3749 69.792 31.9189 70.848C32.4949 71.904 33.4389 72.784 34.7509 73.488C36.0949 74.192 37.9029 74.544 40.1749 74.544C42.2869 74.544 44.0149 74.24 45.3589 73.632C46.7029 72.992 47.6949 72.176 48.3349 71.184C48.9749 70.16 49.2949 69.056 49.2949 67.872C49.2949 66.432 48.6709 65.248 47.4229 64.32C46.1749 63.36 44.3509 62.768 41.9509 62.544L38.0629 62.208C34.9589 61.952 32.4789 60.992 30.6229 59.328C28.7669 57.664 27.8389 55.472 27.8389 52.752C27.8389 50.608 28.3509 48.736 29.3749 47.136C30.4309 45.536 31.8869 44.288 33.7429 43.392C35.5989 42.464 37.7589 42 40.2229 42C42.6549 42 44.7989 42.448 46.6549 43.344C48.5109 44.24 49.9509 45.504 50.9749 47.136C52.0309 48.736 52.5589 50.656 52.5589 52.896H47.8549C47.8549 51.776 47.5829 50.72 47.0389 49.728C46.5269 48.736 45.7109 47.92 44.5909 47.28C43.4709 46.64 42.0149 46.32 40.2229 46.32C38.4949 46.32 37.0549 46.624 35.9029 47.232C34.7829 47.84 33.9349 48.64 33.3589 49.632C32.8149 50.592 32.5429 51.632 32.5429 52.752C32.5429 54.032 33.0389 55.168 34.0309 56.16C35.0229 57.152 36.4949 57.728 38.4469 57.888L42.3349 58.224C44.7349 58.416 46.7989 58.928 48.5269 59.76C50.2869 60.56 51.6309 61.648 52.5589 63.024C53.5189 64.368 53.9989 65.984 53.9989 67.872C53.9989 70.016 53.4229 71.92 52.2709 73.584C51.1189 75.248 49.5029 76.544 47.4229 77.472C45.3429 78.4 42.9269 78.864 40.1749 78.864Z" fill="#F7E018"/>
<path d="M64.7487 78.408C63.6927 78.408 62.7567 78.216 61.9407 77.832C61.1247 77.448 60.4367 76.944 59.8767 76.32C59.3327 75.696 58.9167 75 58.6287 74.232C58.3567 73.448 58.2207 72.648 58.2207 71.832V71.592C58.2207 70.76 58.3647 69.952 58.6527 69.168C58.9407 68.384 59.3647 67.68 59.9247 67.056C60.4847 66.432 61.1647 65.936 61.9647 65.568C62.7807 65.2 63.7087 65.016 64.7487 65.016C65.7727 65.016 66.6847 65.2 67.4847 65.568C68.3007 65.936 68.9887 66.432 69.5487 67.056C70.1087 67.68 70.5327 68.384 70.8207 69.168C71.1247 69.952 71.2767 70.76 71.2767 71.592V71.832C71.2767 72.648 71.1327 73.448 70.8447 74.232C70.5567 75 70.1327 75.696 69.5727 76.32C69.0287 76.944 68.3487 77.448 67.5327 77.832C66.7327 78.216 65.8047 78.408 64.7487 78.408ZM64.7487 77.232C65.8687 77.232 66.8127 76.976 67.5807 76.464C68.3647 75.952 68.9567 75.28 69.3567 74.448C69.7727 73.6 69.9807 72.688 69.9807 71.712C69.9807 70.704 69.7727 69.784 69.3567 68.952C68.9407 68.104 68.3407 67.432 67.5567 66.936C66.7887 66.424 65.8527 66.168 64.7487 66.168C63.6607 66.168 62.7167 66.424 61.9167 66.936C61.1327 67.432 60.5327 68.104 60.1167 68.952C59.7007 69.784 59.4927 70.704 59.4927 71.712C59.4927 72.688 59.6927 73.6 60.0927 74.448C60.5087 75.28 61.1087 75.952 61.8927 76.464C62.6767 76.976 63.6287 77.232 64.7487 77.232ZM82.8479 78V74.232H82.6079V69.6C82.6079 68.592 82.3439 67.816 81.8159 67.272C81.2879 66.712 80.4159 66.432 79.1999 66.432C78.7679 66.432 78.3279 66.448 77.8799 66.48C77.4319 66.496 77.0079 66.52 76.6079 66.552C76.2079 66.568 75.8479 66.6 75.5279 66.648V65.496C75.8479 65.448 76.1839 65.408 76.5359 65.376C76.9039 65.344 77.2719 65.32 77.6399 65.304C78.0079 65.288 78.3599 65.28 78.6959 65.28C79.9599 65.28 80.9679 65.448 81.7199 65.784C82.4719 66.104 83.0159 66.6 83.3519 67.272C83.6879 67.928 83.8559 68.768 83.8559 69.792V78H82.8479ZM78.4559 78.336C77.6079 78.336 76.8479 78.184 76.1759 77.88C75.5039 77.576 74.9679 77.128 74.5679 76.536C74.1839 75.944 73.9919 75.224 73.9919 74.376C73.9919 73.56 74.1759 72.864 74.5439 72.288C74.9279 71.712 75.4719 71.272 76.1759 70.968C76.8959 70.664 77.7599 70.512 78.7679 70.512H82.7279V71.544H78.6479C77.5599 71.544 76.7199 71.808 76.1279 72.336C75.5519 72.848 75.2639 73.528 75.2639 74.376C75.2639 75.272 75.5759 75.984 76.1999 76.512C76.8239 77.024 77.6399 77.28 78.6479 77.28C79.2719 77.28 79.8799 77.16 80.4719 76.92C81.0639 76.68 81.5599 76.28 81.9599 75.72C82.3599 75.144 82.5759 74.376 82.6079 73.416L83.0879 73.968C83.0399 74.944 82.7999 75.76 82.3679 76.416C81.9519 77.056 81.4079 77.536 80.7359 77.856C80.0639 78.176 79.3039 78.336 78.4559 78.336ZM88.6204 78V65.4H89.6284V70.728H89.4364C89.4364 68.904 89.8444 67.544 90.6604 66.648C91.4764 65.752 92.7964 65.304 94.6204 65.304H95.0524V66.456H94.3804C92.8924 66.456 91.7724 66.84 91.0204 67.608C90.2684 68.36 89.8924 69.472 89.8924 70.944V78H88.6204ZM103.131 78.408C102.059 78.408 101.131 78.224 100.347 77.856C99.5634 77.472 98.9234 76.968 98.4274 76.344C97.9314 75.704 97.5554 74.992 97.2994 74.208C97.0594 73.408 96.9394 72.6 96.9394 71.784V71.544C96.9394 70.712 97.0594 69.912 97.2994 69.144C97.5554 68.376 97.9314 67.68 98.4274 67.056C98.9394 66.416 99.5714 65.92 100.323 65.568C101.091 65.2 101.979 65.016 102.987 65.016C104.267 65.016 105.339 65.304 106.203 65.88C107.083 66.44 107.747 67.176 108.195 68.088C108.643 69 108.867 69.96 108.867 70.968V71.832H97.5394V70.776H108.027L107.643 71.256C107.643 70.28 107.459 69.408 107.091 68.64C106.739 67.872 106.211 67.272 105.507 66.84C104.819 66.392 103.979 66.168 102.987 66.168C101.915 66.168 101.019 66.416 100.299 66.912C99.5794 67.408 99.0354 68.072 98.6674 68.904C98.3154 69.736 98.1394 70.656 98.1394 71.664C98.1394 72.672 98.3154 73.6 98.6674 74.448C99.0354 75.28 99.5874 75.96 100.323 76.488C101.059 77 101.995 77.256 103.131 77.256C104.347 77.256 105.323 76.976 106.059 76.416C106.811 75.856 107.267 75.184 107.427 74.4H108.675C108.499 75.184 108.163 75.88 107.667 76.488C107.171 77.096 106.539 77.568 105.771 77.904C105.019 78.24 104.139 78.408 103.131 78.408ZM116.295 78.36C114.727 78.36 113.519 78 112.671 77.28C111.839 76.56 111.415 75.64 111.399 74.52H112.647C112.647 75.24 112.927 75.872 113.487 76.416C114.063 76.944 114.999 77.208 116.295 77.208C117.559 77.208 118.487 76.944 119.079 76.416C119.671 75.872 119.967 75.232 119.967 74.496C119.967 73.776 119.695 73.224 119.151 72.84C118.623 72.456 117.903 72.216 116.991 72.12L115.503 71.952C114.399 71.824 113.519 71.48 112.863 70.92C112.223 70.36 111.903 69.6 111.903 68.64C111.903 67.952 112.079 67.336 112.431 66.792C112.783 66.248 113.287 65.816 113.943 65.496C114.615 65.176 115.399 65.016 116.295 65.016C117.607 65.016 118.663 65.336 119.463 65.976C120.279 66.616 120.695 67.488 120.711 68.592H119.463C119.479 67.904 119.207 67.328 118.647 66.864C118.103 66.4 117.319 66.168 116.295 66.168C115.223 66.168 114.423 66.416 113.895 66.912C113.383 67.408 113.127 67.992 113.127 68.664C113.127 69.224 113.327 69.704 113.727 70.104C114.143 70.504 114.767 70.752 115.599 70.848L117.087 71.016C118.271 71.128 119.247 71.472 120.015 72.048C120.799 72.624 121.191 73.448 121.191 74.52C121.191 75.24 120.991 75.888 120.591 76.464C120.207 77.04 119.655 77.504 118.935 77.856C118.215 78.192 117.335 78.36 116.295 78.36Z" fill="#313131"/>
</g>
<rect x="60.2651" y="49" width="64.2169" height="2" rx="1" fill="#313131"/>
<defs>
<filter id="filter0_d_312_104" x="0.823975" y="0.959991" width="127.579" height="37.904" filterUnits="userSpaceOnUse" color-interpolation-filters="sRGB">
<feFlood flood-opacity="0" result="BackgroundImageFix"/>
<feColorMatrix in="SourceAlpha" type="matrix" values="0 0 0 0 0 0 0 0 0 0 0 0 0 0 0 0 0 0 127 0" result="hardAlpha"/>
<feOffset dy="1"/>
<feGaussianBlur stdDeviation="0.5"/>
<feComposite in2="hardAlpha" operator="out"/>
<feColorMatrix type="matrix" values="0 0 0 0 0 0 0 0 0 0 0 0 0 0 0 0 0 0 0.1 0"/>
<feBlend mode="normal" in2="BackgroundImageFix" result="effect1_dropShadow_312_104"/>
<feBlend mode="normal" in="SourceGraphic" in2="effect1_dropShadow_312_104" result="shape"/>
</filter>
<filter id="filter1_d_312_104" x="25.3989" y="42" width="96.7917" height="38.864" filterUnits="userSpaceOnUse" color-interpolation-filters="sRGB">
<feFlood flood-opacity="0" result="BackgroundImageFix"/>
<feColorMatrix in="SourceAlpha" type="matrix" values="0 0 0 0 0 0 0 0 0 0 0 0 0 0 0 0 0 0 127 0" result="hardAlpha"/>
<feOffset dy="1"/>
<feGaussianBlur stdDeviation="0.5"/>
<feComposite in2="hardAlpha" operator="out"/>
<feColorMatrix type="matrix" values="0 0 0 0 0 0 0 0 0 0 0 0 0 0 0 0 0 0 0.1 0"/>
<feBlend mode="normal" in2="BackgroundImageFix" result="effect1_dropShadow_312_104"/>
<feBlend mode="normal" in="SourceGraphic" in2="effect1_dropShadow_312_104" result="shape"/>
</filter>
</defs>
</svg>
